<svg xmlns="http://www.w3.org/2000/svg" width="16" height="23" viewBox="0 0 16 23" fill="none">
<path d="M2 6.69551C2 6.69551 2.08451 4.7589 3.9683 3.20608C5.08685 2.28414 6.43015 2.01712 7.63379 2.00069C8.73296 1.98719 9.71535 2.17322 10.3028 2.45961C11.3069 2.95139 13.2676 4.14857 13.2676 6.69551C13.2676 9.37567 11.5551 10.5905 9.60855 11.9291C7.66196 13.2677 7.16431 14.5805 7.16431 16.0852" stroke="black" stroke-width="4" stroke-miterlimit="10" stroke-linecap="round"/>
<path d="M7.16431 22.4226C8.20146 22.4226 9.04223 21.5818 9.04223 20.5446C9.04223 19.5075 8.20146 18.6667 7.16431 18.6667C6.12715 18.6667 5.28638 19.5075 5.28638 20.5446C5.28638 21.5818 6.12715 22.4226 7.16431 22.4226Z" fill="black"/>
</svg>