<svg xmlns="http://www.w3.org/2000/svg" width="21" height="29" viewBox="0 0 21 29" fill="none">
  <path d="M10.5 2C5.80729 2 2 5.62372 2 10.0868C2 15.2222 7.66667 23.3604 9.7474 26.1713C9.83376 26.2899 9.94697 26.3865 10.0778 26.4531C10.2086 26.5196 10.3532 26.5543 10.5 26.5543C10.6468 26.5543 10.7914 26.5196 10.9222 26.4531C11.053 26.3865 11.1662 26.2899 11.2526 26.1713C13.3333 23.3616 19 15.2264 19 10.0868C19 5.62372 15.1927 2 10.5 2Z" stroke="black" stroke-width="2.99739" stroke-linecap="round" stroke-linejoin="round"/>
  <path d="M10.5 13.3333C12.0648 13.3333 13.3333 12.0648 13.3333 10.5C13.3333 8.93518 12.0648 7.66666 10.5 7.66666C8.93515 7.66666 7.66663 8.93518 7.66663 10.5C7.66663 12.0648 8.93515 13.3333 10.5 13.3333Z" stroke="black" stroke-width="2.99739" stroke-linecap="round" stroke-linejoin="round"/>
</svg>